<svg width="221" height="62" viewBox="0 0 221 62" fill="none" xmlns="http://www.w3.org/2000/svg">
<path d="M27.6339 44.4853L28.2218 44.0456C31.6343 41.4938 34.0059 37.7926 34.8974 33.6274C35.789 29.4622 35.14 25.1152 33.0708 21.3915C29.5561 15.2022 21.5842 12.7125 15.7167 16.7334C13.6904 18.1191 12.1493 20.1044 11.31 22.4104C10.4707 24.7165 10.3754 27.2273 11.0374 29.5903C11.6994 31.9533 13.0855 34.0496 15.0009 35.5848C16.9164 37.1199 19.2649 38.0168 21.7166 38.1494C21.8726 38.1543 22.0227 38.2097 22.1445 38.3072C22.2662 38.4048 22.3529 38.5393 22.3915 38.6904C22.4301 38.8415 22.4185 39.001 22.3585 39.145C22.2985 39.2889 22.1933 39.4095 22.0587 39.4884L21.6236 39.8138C19.1602 41.6528 16.4175 43.0848 13.5001 44.0552L15.8435 49.6355C20.1214 48.8602 24.1589 47.0966 27.6339 44.4853Z" stroke="#1C1C1C" stroke-width="2.80085" stroke-miterlimit="10"/>
<path d="M53.1844 22.2369V17.8929H58.1076V22.2369H53.1844ZM53.1844 44.5V24.952H58.1076V44.5H53.1844ZM76.8555 44.5V35.269C76.8555 34.8225 76.8314 34.2554 76.7831 33.5676C76.7349 32.8677 76.584 32.1678 76.3306 31.468C76.0772 30.7681 75.6609 30.1829 75.0817 29.7123C74.5146 29.2417 73.7061 29.0064 72.6563 29.0064C72.234 29.0064 71.7815 29.0727 71.2988 29.2055C70.8162 29.3382 70.3637 29.5976 69.9413 29.9838C69.519 30.3578 69.169 30.9129 68.8915 31.649C68.626 32.385 68.4933 33.3624 68.4933 34.5812L65.6697 33.2418C65.6697 31.6972 65.9834 30.2492 66.6109 28.8978C67.2384 27.5463 68.1796 26.4543 69.4345 25.6217C70.7015 24.7891 72.2943 24.3728 74.2129 24.3728C75.7454 24.3728 76.9943 24.6322 77.9596 25.1511C78.925 25.6699 79.6731 26.3276 80.204 27.124C80.747 27.9204 81.1332 28.753 81.3624 29.6218C81.5917 30.4785 81.7305 31.2628 81.7787 31.9748C81.827 32.6867 81.8511 33.2056 81.8511 33.5314V44.5H76.8555ZM63.4977 44.5V24.952H67.8779V31.4318H68.4933V44.5H63.4977ZM98.2767 44.5C96.9252 44.7534 95.5978 44.862 94.2946 44.8258C93.0035 44.8017 91.8451 44.5784 90.8194 44.1561C89.8058 43.7217 89.0336 43.0279 88.5026 42.0746C88.02 41.1817 87.7666 40.2767 87.7424 39.3596C87.7183 38.4305 87.7062 37.3806 87.7062 36.2102V19.5219H92.6294V35.9206C92.6294 36.6808 92.6355 37.3686 92.6475 37.984C92.6717 38.5873 92.7984 39.07 93.0276 39.432C93.462 40.1198 94.1559 40.4939 95.1091 40.5542C96.0624 40.6145 97.1182 40.5663 98.2767 40.4094V44.5ZM84.3758 28.753V24.952H98.2767V28.753H84.3758ZM110.623 45.043C108.62 45.043 106.852 44.6146 105.32 43.7579C103.799 42.8891 102.605 41.7005 101.736 40.1922C100.879 38.6718 100.451 36.9342 100.451 34.9794C100.451 32.8436 100.873 30.9853 101.718 29.4046C102.563 27.8238 103.727 26.5991 105.211 25.7303C106.695 24.8494 108.403 24.409 110.334 24.409C112.385 24.409 114.129 24.8916 115.564 25.857C117 26.8223 118.062 28.1798 118.75 29.9295C119.438 31.6791 119.679 33.7365 119.474 36.1016H114.605V34.2916C114.605 32.3006 114.285 30.8707 113.646 30.0019C113.018 29.121 111.987 28.6806 110.551 28.6806C108.873 28.6806 107.637 29.1934 106.84 30.2191C106.056 31.2327 105.664 32.735 105.664 34.726C105.664 36.548 106.056 37.9599 106.84 38.9614C107.637 39.9509 108.801 40.4456 110.334 40.4456C111.299 40.4456 112.125 40.2344 112.813 39.8121C113.501 39.3898 114.026 38.7804 114.388 37.984L119.311 39.3958C118.575 41.1817 117.411 42.5693 115.818 43.5588C114.237 44.5483 112.506 45.043 110.623 45.043ZM104.143 36.1016V32.4454H117.103V36.1016H104.143ZM131.923 53.731C130.813 53.731 129.757 53.55 128.756 53.188C127.754 52.8381 126.855 52.3434 126.059 51.7038C125.274 51.0763 124.635 50.3403 124.14 49.4956L128.701 47.2874C129.015 47.8666 129.462 48.307 130.041 48.6087C130.632 48.9104 131.272 49.0612 131.959 49.0612C132.695 49.0612 133.389 48.9345 134.041 48.6811C134.693 48.4398 135.211 48.0717 135.598 47.577C135.996 47.0943 136.183 46.491 136.159 45.767V40.0836H136.774V24.952H141.082V45.8394C141.082 46.3221 141.058 46.7746 141.009 47.1969C140.973 47.6313 140.901 48.0597 140.792 48.482C140.478 49.6766 139.893 50.66 139.037 51.4323C138.192 52.2046 137.154 52.7778 135.923 53.1518C134.693 53.538 133.359 53.731 131.923 53.731ZM131.489 45.043C129.691 45.043 128.116 44.5905 126.765 43.6855C125.413 42.7805 124.357 41.5497 123.597 39.9931C122.849 38.4365 122.475 36.6808 122.475 34.726C122.475 32.735 122.855 30.9672 123.615 29.4227C124.388 27.8661 125.468 26.6413 126.855 25.7484C128.243 24.8554 129.872 24.409 131.742 24.409C133.6 24.409 135.163 24.8615 136.43 25.7665C137.697 26.6715 138.656 27.9023 139.308 29.4589C139.96 31.0155 140.285 32.7712 140.285 34.726C140.285 36.6808 139.954 38.4365 139.29 39.9931C138.638 41.5497 137.661 42.7805 136.358 43.6855C135.055 44.5905 133.432 45.043 131.489 45.043ZM132.285 40.6628C133.383 40.6628 134.258 40.4154 134.91 39.9207C135.573 39.426 136.05 38.7321 136.34 37.8392C136.629 36.9462 136.774 35.9085 136.774 34.726C136.774 33.5434 136.629 32.5057 136.34 31.6128C136.05 30.7198 135.585 30.026 134.946 29.5313C134.318 29.0365 133.492 28.7892 132.466 28.7892C131.368 28.7892 130.463 29.0607 129.751 29.6037C129.051 30.1346 128.532 30.8526 128.195 31.7576C127.857 32.6505 127.688 33.64 127.688 34.726C127.688 35.824 127.851 36.8256 128.177 37.7306C128.502 38.6235 129.003 39.3355 129.679 39.8664C130.355 40.3973 131.223 40.6628 132.285 40.6628ZM146.151 44.5V24.952H150.495V29.7304L150.024 29.115C150.278 28.4392 150.615 27.8238 151.038 27.2688C151.46 26.7137 151.979 26.2552 152.594 25.8932C153.065 25.6036 153.578 25.3803 154.133 25.2235C154.688 25.0545 155.261 24.952 155.852 24.9158C156.444 24.8675 157.035 24.8796 157.626 24.952V29.5494C157.083 29.3804 156.45 29.3261 155.726 29.3865C155.014 29.4347 154.368 29.5976 153.789 29.8752C153.21 30.1406 152.721 30.4966 152.323 30.9431C151.925 31.3775 151.623 31.8963 151.418 32.4997C151.213 33.0909 151.11 33.7606 151.11 34.5088V44.5H146.151ZM161.431 22.2369V17.8929H166.354V22.2369H161.431ZM161.431 44.5V24.952H166.354V44.5H161.431ZM180.577 45.043C178.61 45.043 176.885 44.6026 175.401 43.7217C173.916 42.8408 172.758 41.6281 171.925 40.0836C171.105 38.527 170.695 36.7411 170.695 34.726C170.695 32.6867 171.117 30.8948 171.962 29.3503C172.806 27.7937 173.971 26.581 175.455 25.7122C176.939 24.8434 178.647 24.409 180.577 24.409C182.544 24.409 184.27 24.8494 185.754 25.7303C187.25 26.6111 188.415 27.8299 189.247 29.3865C190.08 30.931 190.496 32.7108 190.496 34.726C190.496 36.7532 190.074 38.5451 189.229 40.1017C188.396 41.6462 187.232 42.8589 185.736 43.7398C184.252 44.6086 182.532 45.043 180.577 45.043ZM180.577 40.4456C182.158 40.4456 183.334 39.9147 184.107 38.8528C184.891 37.7789 185.283 36.4032 185.283 34.726C185.283 32.9884 184.885 31.6007 184.089 30.563C183.304 29.5252 182.134 29.0064 180.577 29.0064C179.503 29.0064 178.622 29.2477 177.935 29.7304C177.247 30.213 176.734 30.8827 176.396 31.7395C176.07 32.5962 175.907 33.5917 175.907 34.726C175.907 36.4756 176.3 37.8694 177.084 38.9071C177.88 39.9328 179.045 40.4456 180.577 40.4456ZM207.798 44.5V35.269C207.798 34.8225 207.774 34.2554 207.726 33.5676C207.677 32.8677 207.527 32.1678 207.273 31.468C207.02 30.7681 206.603 30.1829 206.024 29.7123C205.457 29.2417 204.649 29.0064 203.599 29.0064C203.176 29.0064 202.724 29.0727 202.241 29.2055C201.759 29.3382 201.306 29.5976 200.884 29.9838C200.461 30.3578 200.112 30.9129 199.834 31.649C199.569 32.385 199.436 33.3624 199.436 34.5812L196.612 33.2418C196.612 31.6972 196.926 30.2492 197.553 28.8978C198.181 27.5463 199.122 26.4543 200.377 25.6217C201.644 24.7891 203.237 24.3728 205.155 24.3728C206.688 24.3728 207.937 24.6322 208.902 25.1511C209.867 25.6699 210.616 26.3276 211.147 27.124C211.69 27.9204 212.076 28.753 212.305 29.6218C212.534 30.4785 212.673 31.2628 212.721 31.9748C212.769 32.6867 212.794 33.2056 212.794 33.5314V44.5H207.798ZM194.44 44.5V24.952H198.82V31.4318H199.436V44.5H194.44Z" fill="#1C1C1C"/>
</svg>
