<svg width="221" height="62" viewBox="0 0 221 62" fill="none" xmlns="http://www.w3.org/2000/svg">
<path d="M27.6339 44.4855L28.2218 44.0458C31.6343 41.494 34.0059 37.7928 34.8974 33.6276C35.7889 29.4624 35.14 25.1154 33.0708 21.3916C29.5561 15.2024 21.5841 12.7127 15.7167 16.7336C13.6903 18.1193 12.1493 20.1046 11.31 22.4106C10.4707 24.7166 10.3754 27.2275 11.0374 29.5905C11.6994 31.9534 13.0855 34.0498 15.0009 35.5849C16.9163 37.1201 19.2649 38.017 21.7166 38.1496C21.8725 38.1544 22.0227 38.2098 22.1444 38.3074C22.2662 38.405 22.3529 38.5394 22.3915 38.6905C22.4301 38.8416 22.4185 39.0012 22.3585 39.1451C22.2985 39.2891 22.1933 39.4096 22.0587 39.4886L21.6236 39.814C19.1602 41.6529 16.4175 43.085 13.5001 44.0554L15.8435 49.6357C20.1214 48.8603 24.1589 47.0967 27.6339 44.4855Z" stroke="#1A3731" stroke-width="2.80085" stroke-miterlimit="10"/>
<path d="M53.1843 22.2369V17.8929H58.1075V22.2369H53.1843ZM53.1843 44.5V24.952H58.1075V44.5H53.1843ZM76.8555 44.5V35.269C76.8555 34.8225 76.8314 34.2554 76.7831 33.5676C76.7348 32.8677 76.584 32.1678 76.3306 31.468C76.0772 30.7681 75.6609 30.1829 75.0817 29.7123C74.5146 29.2417 73.7061 29.0064 72.6563 29.0064C72.234 29.0064 71.7815 29.0727 71.2988 29.2055C70.8161 29.3382 70.3636 29.5976 69.9413 29.9838C69.519 30.3578 69.169 30.9129 68.8915 31.649C68.626 32.385 68.4933 33.3624 68.4933 34.5812L65.6697 33.2418C65.6697 31.6972 65.9834 30.2492 66.6109 28.8978C67.2384 27.5463 68.1796 26.4543 69.4345 25.6217C70.7015 24.7891 72.2943 24.3728 74.2129 24.3728C75.7454 24.3728 76.9943 24.6322 77.9596 25.1511C78.925 25.6699 79.6731 26.3276 80.204 27.124C80.747 27.9204 81.1332 28.753 81.3624 29.6218C81.5917 30.4785 81.7305 31.2628 81.7787 31.9748C81.827 32.6867 81.8511 33.2056 81.8511 33.5314V44.5H76.8555ZM63.4977 44.5V24.952H67.8779V31.4318H68.4933V44.5H63.4977ZM98.2766 44.5C96.9252 44.7534 95.5978 44.862 94.2946 44.8258C93.0035 44.8017 91.8451 44.5784 90.8194 44.1561C89.8058 43.7217 89.0335 43.0279 88.5026 42.0746C88.0199 41.1817 87.7665 40.2767 87.7424 39.3596C87.7183 38.4305 87.7062 37.3806 87.7062 36.2102V19.5219H92.6294V35.9206C92.6294 36.6808 92.6355 37.3686 92.6475 37.984C92.6717 38.5873 92.7984 39.07 93.0276 39.432C93.462 40.1198 94.1559 40.4939 95.1091 40.5542C96.0624 40.6145 97.1182 40.5663 98.2766 40.4094V44.5ZM84.3758 28.753V24.952H98.2766V28.753H84.3758ZM110.658 45.043C108.655 45.043 106.888 44.6146 105.355 43.7579C103.835 42.8891 102.64 41.7005 101.771 40.1922C100.915 38.6718 100.486 36.9342 100.486 34.9794C100.486 32.8436 100.909 30.9853 101.753 29.4046C102.598 27.8238 103.762 26.5991 105.247 25.7303C106.731 24.8494 108.438 24.409 110.369 24.409C112.42 24.409 114.164 24.8916 115.6 25.857C117.036 26.8223 118.098 28.1798 118.785 29.9295C119.473 31.6791 119.715 33.7365 119.509 36.1016H114.64V34.2916C114.64 32.3006 114.321 30.8707 113.681 30.0019C113.054 29.121 112.022 28.6806 110.586 28.6806C108.909 28.6806 107.672 29.1934 106.876 30.2191C106.091 31.2327 105.699 32.735 105.699 34.726C105.699 36.548 106.091 37.9599 106.876 38.9614C107.672 39.9509 108.836 40.4456 110.369 40.4456C111.334 40.4456 112.161 40.2344 112.849 39.8121C113.536 39.3898 114.061 38.7804 114.423 37.984L119.346 39.3958C118.61 41.1817 117.446 42.5693 115.853 43.5588C114.272 44.5483 112.541 45.043 110.658 45.043ZM104.179 36.1016V32.4454H117.138V36.1016H104.179ZM131.959 53.731C130.848 53.731 129.793 53.55 128.791 53.188C127.79 52.8381 126.891 52.3434 126.094 51.7038C125.31 51.0763 124.67 50.3403 124.176 49.4956L128.737 47.2874C129.05 47.8666 129.497 48.307 130.076 48.6087C130.667 48.9104 131.307 49.0612 131.995 49.0612C132.731 49.0612 133.425 48.9345 134.076 48.6811C134.728 48.4398 135.247 48.0717 135.633 47.577C136.031 47.0943 136.218 46.491 136.194 45.767V40.0836H136.809V24.952H141.117V45.8394C141.117 46.3221 141.093 46.7746 141.045 47.1969C141.009 47.6313 140.936 48.0597 140.828 48.482C140.514 49.6766 139.929 50.66 139.072 51.4323C138.227 52.2046 137.189 52.7778 135.959 53.1518C134.728 53.538 133.394 53.731 131.959 53.731ZM131.524 45.043C129.726 45.043 128.152 44.5905 126.8 43.6855C125.449 42.7805 124.393 41.5497 123.633 39.9931C122.884 38.4365 122.51 36.6808 122.51 34.726C122.51 32.735 122.89 30.9672 123.651 29.4227C124.423 27.8661 125.503 26.6413 126.891 25.7484C128.278 24.8554 129.907 24.409 131.778 24.409C133.636 24.409 135.198 24.8615 136.465 25.7665C137.732 26.6715 138.692 27.9023 139.343 29.4589C139.995 31.0155 140.321 32.7712 140.321 34.726C140.321 36.6808 139.989 38.4365 139.325 39.9931C138.674 41.5497 137.696 42.7805 136.393 43.6855C135.09 44.5905 133.467 45.043 131.524 45.043ZM132.321 40.6628C133.419 40.6628 134.293 40.4154 134.945 39.9207C135.609 39.426 136.085 38.7321 136.375 37.8392C136.665 36.9462 136.809 35.9085 136.809 34.726C136.809 33.5434 136.665 32.5057 136.375 31.6128C136.085 30.7198 135.621 30.026 134.981 29.5313C134.354 29.0365 133.527 28.7892 132.502 28.7892C131.403 28.7892 130.498 29.0607 129.787 29.6037C129.087 30.1346 128.568 30.8526 128.23 31.7576C127.892 32.6505 127.723 33.64 127.723 34.726C127.723 35.824 127.886 36.8256 128.212 37.7306C128.538 38.6235 129.038 39.3355 129.714 39.8664C130.39 40.3973 131.259 40.6628 132.321 40.6628ZM146.186 44.5V24.952H150.53V29.7304L150.059 29.115C150.313 28.4392 150.651 27.8238 151.073 27.2688C151.495 26.7137 152.014 26.2552 152.63 25.8932C153.1 25.6036 153.613 25.3803 154.168 25.2235C154.723 25.0545 155.296 24.952 155.888 24.9158C156.479 24.8675 157.07 24.8796 157.661 24.952V29.5494C157.118 29.3804 156.485 29.3261 155.761 29.3865C155.049 29.4347 154.403 29.5976 153.824 29.8752C153.245 30.1406 152.756 30.4966 152.358 30.9431C151.96 31.3775 151.658 31.8963 151.453 32.4997C151.248 33.0909 151.145 33.7606 151.145 34.5088V44.5H146.186ZM161.466 22.2369V17.8929H166.39V22.2369H161.466ZM161.466 44.5V24.952H166.39V44.5H161.466ZM180.613 45.043C178.646 45.043 176.92 44.6026 175.436 43.7217C173.952 42.8408 172.793 41.6281 171.961 40.0836C171.14 38.527 170.73 36.7411 170.73 34.726C170.73 32.6867 171.152 30.8948 171.997 29.3503C172.842 27.7937 174.006 26.581 175.49 25.7122C176.974 24.8434 178.682 24.409 180.613 24.409C182.579 24.409 184.305 24.8494 185.789 25.7303C187.285 26.6111 188.45 27.8299 189.283 29.3865C190.115 30.931 190.531 32.7108 190.531 34.726C190.531 36.7532 190.109 38.5451 189.264 40.1017C188.432 41.6462 187.267 42.8589 185.771 43.7398C184.287 44.6086 182.567 45.043 180.613 45.043ZM180.613 40.4456C182.193 40.4456 183.37 39.9147 184.142 38.8528C184.926 37.7789 185.319 36.4032 185.319 34.726C185.319 32.9884 184.92 31.6007 184.124 30.563C183.34 29.5252 182.169 29.0064 180.613 29.0064C179.539 29.0064 178.658 29.2477 177.97 29.7304C177.282 30.213 176.769 30.8827 176.431 31.7395C176.106 32.5962 175.943 33.5917 175.943 34.726C175.943 36.4756 176.335 37.8694 177.119 38.9071C177.916 39.9328 179.08 40.4456 180.613 40.4456ZM207.833 44.5V35.269C207.833 34.8225 207.809 34.2554 207.761 33.5676C207.713 32.8677 207.562 32.1678 207.308 31.468C207.055 30.7681 206.639 30.1829 206.06 29.7123C205.492 29.2417 204.684 29.0064 203.634 29.0064C203.212 29.0064 202.759 29.0727 202.277 29.2055C201.794 29.3382 201.341 29.5976 200.919 29.9838C200.497 30.3578 200.147 30.9129 199.869 31.649C199.604 32.385 199.471 33.3624 199.471 34.5812L196.648 33.2418C196.648 31.6972 196.961 30.2492 197.589 28.8978C198.216 27.5463 199.157 26.4543 200.412 25.6217C201.679 24.7891 203.272 24.3728 205.191 24.3728C206.723 24.3728 207.972 24.6322 208.937 25.1511C209.903 25.6699 210.651 26.3276 211.182 27.124C211.725 27.9204 212.111 28.753 212.34 29.6218C212.57 30.4785 212.708 31.2628 212.757 31.9748C212.805 32.6867 212.829 33.2056 212.829 33.5314V44.5H207.833ZM194.476 44.5V24.952H198.856V31.4318H199.471V44.5H194.476Z" fill="#1A3731"/>
</svg>
