<svg width="586" height="592" viewBox="0 0 586 592" fill="none" xmlns="http://www.w3.org/2000/svg">
<circle cx="284.5" cy="290.5" r="230.5" stroke="#E5E5E5" stroke-opacity="0.5" stroke-width="12"/>
<g filter="url(#filter0_dd_2101_718)">
<rect x="174" y="444" width="118" height="118" rx="59" fill="white"/>
<rect x="171" y="441" width="124" height="124" rx="62" stroke="#F2F2F2" stroke-width="6"/>
<path d="M257.197 496.636C257.197 495.735 257.003 494.938 256.613 494.255C256.229 493.582 255.654 493.019 254.883 492.574C248.52 488.912 242.15 485.262 235.789 481.597C234.074 480.609 232.411 480.645 230.709 481.647C228.176 483.137 215.495 490.387 211.716 492.571C210.16 493.47 209.403 494.846 209.402 496.635C209.4 503.998 209.402 511.361 209.4 518.725C209.4 519.607 209.585 520.388 209.959 521.061C210.343 521.754 210.926 522.333 211.714 522.788C215.493 524.972 228.176 532.222 230.708 533.713C232.411 534.715 234.074 534.751 235.789 533.763C242.151 530.097 248.521 526.447 254.885 522.786C255.674 522.33 256.257 521.751 256.641 521.059C257.014 520.386 257.199 519.605 257.199 518.723C257.199 518.723 257.199 504 257.197 496.636Z" fill="#A179DC"/>
<path d="M233.373 507.608L209.959 521.061C210.343 521.753 210.926 522.332 211.714 522.788C215.493 524.972 228.176 532.222 230.708 533.712C232.411 534.715 234.074 534.751 235.79 533.763C242.151 530.097 248.521 526.447 254.885 522.786C255.674 522.33 256.257 521.751 256.641 521.059L233.373 507.608Z" fill="#280068"/>
<path d="M257.197 496.636C257.197 495.735 257.003 494.939 256.613 494.255L233.373 507.608L256.641 521.059C257.014 520.386 257.199 519.605 257.199 518.723C257.199 518.723 257.199 504 257.197 496.636Z" fill="#390091"/>
<path d="M247.158 502.579V505.094H249.678V502.579H250.938V505.094H253.458V506.351H250.938V508.866H253.458V510.123H250.938V512.637H249.678V510.123H247.158V512.637H245.898V510.123H243.378V508.866H245.898V506.351H243.378V505.094H245.898V502.579H247.158ZM249.678 506.351H247.158V508.866H249.678V506.351Z" fill="white"/>
<path d="M233.424 489.95C239.997 489.95 245.735 493.512 248.809 498.806L248.779 498.755L241.046 503.199C239.522 500.624 236.729 498.887 233.525 498.851L233.424 498.851C228.538 498.851 224.577 502.804 224.577 507.679C224.577 509.274 225.003 510.769 225.744 512.059C227.269 514.716 230.136 516.508 233.424 516.508C236.733 516.508 239.616 514.693 241.134 512.008L241.097 512.073L248.818 516.537C245.778 521.786 240.118 525.337 233.622 525.408L233.424 525.409C226.831 525.409 221.076 521.825 218.01 516.503C216.513 513.904 215.657 510.892 215.657 507.679C215.657 497.888 223.612 489.95 233.424 489.95Z" fill="white"/>
</g>
<g filter="url(#filter1_dd_2101_718)">
<rect x="366" y="406" width="118" height="118" rx="59" fill="white"/>
<rect x="363" y="403" width="124" height="124" rx="62" stroke="#F2F2F2" stroke-width="6"/>
<g clip-path="url(#clip0_2101_718)">
<path d="M422.522 440.31C423.997 439.475 425.878 439.472 427.316 440.31L449.337 452.724C450.715 453.499 451.637 455.035 451.624 456.622V481.513C451.633 483.167 450.621 484.736 449.168 485.495L427.264 497.852C426.515 498.266 425.669 498.472 424.813 498.448C423.957 498.425 423.124 498.172 422.398 497.717L415.825 493.919C415.377 493.652 414.874 493.44 414.557 493.007C414.837 492.631 415.335 492.583 415.741 492.417C416.655 492.125 417.492 491.679 418.333 491.207C418.545 491.06 418.805 491.115 419.008 491.248L424.613 494.489C425.013 494.719 425.419 494.415 425.761 494.222L447.269 482.084C447.534 481.955 447.682 481.675 447.66 481.384V456.733C447.689 456.401 447.499 456.098 447.199 455.964L425.35 443.661C425.224 443.573 425.075 443.527 424.922 443.526C424.769 443.526 424.619 443.572 424.493 443.659L402.676 455.988C402.381 456.122 402.178 456.421 402.215 456.753V481.404C402.189 481.695 402.344 481.97 402.611 482.095L408.441 485.386C409.536 485.976 410.881 486.308 412.086 485.875C412.614 485.676 413.068 485.321 413.388 484.856C413.708 484.392 413.879 483.841 413.877 483.277L413.882 458.774C413.856 458.411 414.199 458.11 414.551 458.147H417.354C417.723 458.138 418.012 458.529 417.962 458.894L417.957 483.552C417.959 485.742 417.059 488.124 415.033 489.199C412.536 490.49 409.45 490.219 406.983 488.978L400.714 485.512C399.239 484.774 398.249 483.181 398.258 481.529V456.639C398.264 455.83 398.487 455.037 398.902 454.343C399.318 453.649 399.912 453.079 400.622 452.691L422.522 440.31ZM428.872 457.564C432.056 457.38 435.465 457.443 438.33 459.012C440.548 460.214 441.778 462.736 441.819 465.203C441.756 465.535 441.409 465.719 441.092 465.695C440.17 465.693 439.245 465.708 438.319 465.69C437.927 465.704 437.7 465.343 437.65 464.996C437.384 463.816 436.741 462.649 435.631 462.08C433.927 461.226 431.951 461.268 430.092 461.287C428.735 461.361 427.277 461.477 426.128 462.273C425.243 462.878 424.978 464.117 425.293 465.079C425.588 465.786 426.405 466.012 427.071 466.222C430.909 467.225 434.975 467.144 438.741 468.448C440.299 468.986 441.824 470.034 442.359 471.665C443.056 473.852 442.752 476.466 441.197 478.222C439.936 479.667 438.1 480.434 436.265 480.88C433.826 481.424 431.296 481.437 428.82 481.194C426.492 480.928 424.069 480.316 422.271 478.73C420.734 477.396 419.985 475.316 420.059 473.31C420.077 472.971 420.415 472.735 420.741 472.762H423.507C423.879 472.736 424.152 473.057 424.17 473.408C424.342 474.514 424.764 475.712 425.745 476.358C427.637 477.578 430.009 477.493 432.174 477.528C433.968 477.449 435.981 477.425 437.447 476.238C438.222 475.561 438.448 474.431 438.24 473.457C438.013 472.635 437.134 472.253 436.396 471.982C432.607 470.784 428.496 471.219 424.744 469.862C423.221 469.324 421.748 468.306 421.163 466.741C420.346 464.528 420.721 461.786 422.441 460.09C424.1 458.403 426.534 457.752 428.839 457.52L428.872 457.564Z" fill="#8CC84B"/>
</g>
</g>
<g filter="url(#filter2_dd_2101_718)">
<rect x="450" y="219" width="118" height="118" rx="59" fill="white"/>
<rect x="447" y="216" width="124" height="124" rx="62" stroke="#F2F2F2" stroke-width="6"/>
<path d="M509.133 279.355C507.599 276.928 506.487 274.915 504.946 271.126C502.34 264.725 520.794 258.941 513.312 247.828C516.555 255.505 501.67 260.251 500.287 266.644C499.023 272.524 509.125 279.355 509.133 279.355Z" fill="#F44336"/>
<path d="M509.483 267.847C509.188 271.643 512.908 273.666 513.015 276.438C513.101 278.695 510.792 280.576 510.792 280.576C510.792 280.576 514.983 279.768 516.291 276.325C517.743 272.503 513.473 269.885 513.913 266.825C514.323 263.901 523.179 258.463 523.179 258.463C523.179 258.463 510.148 259.311 509.483 267.847Z" fill="#F44336"/>
<path d="M522.091 279.591C524.786 278.997 527.059 280.682 527.059 282.623C527.059 287 520.88 291.136 520.88 291.136C520.88 291.136 530.445 290.017 530.445 282.832C530.445 278.08 525.748 276.893 522.091 279.591ZM517.551 283.121C517.551 283.121 520.533 281.035 521.328 280.252C514.009 281.777 497.3 281.982 497.3 280.658C497.3 279.437 502.689 278.187 502.689 278.187C502.689 278.187 490.746 278.018 490.746 281.477C490.746 285.082 506.379 285.34 517.551 283.121Z" fill="#1565C0"/>
<path d="M515.716 286.404C508.788 288.665 496.028 287.942 499.808 284.906C497.967 284.906 495.238 286.358 495.238 287.755C495.238 290.557 509.039 292.72 519.253 288.618L515.716 286.404Z" fill="#1565C0"/>
<path d="M501.506 291.183C498.992 291.183 497.365 292.773 497.365 293.931C497.365 297.538 512.361 297.902 518.302 294.24L514.526 291.778C510.087 293.694 498.937 293.958 501.506 291.183Z" fill="#1565C0"/>
<path d="M528.54 297.055C528.54 295.643 526.919 294.978 526.338 294.66C529.761 302.765 492.049 302.136 492.049 297.351C492.049 296.263 494.825 295.198 497.391 295.702L495.209 294.437C490.096 293.649 486.624 295.856 486.624 297.636C486.624 305.938 528.54 305.538 528.54 297.055Z" fill="#1565C0"/>
<path d="M532.717 300.03C526.347 306.208 510.194 308.458 493.951 304.642C510.194 311.435 532.64 307.609 532.717 300.03Z" fill="#1565C0"/>
</g>
<g filter="url(#filter3_dd_2101_718)">
<rect x="378" y="44" width="118" height="118" rx="59" fill="white"/>
<rect x="375" y="41" width="124" height="124" rx="62" stroke="#F2F2F2" stroke-width="6"/>
<path d="M409.637 98.9024C409.511 98.9024 409.479 98.8393 409.542 98.7446L410.202 97.8926C410.265 97.798 410.422 97.7349 410.548 97.7349H421.77C421.896 97.7349 421.927 97.8295 421.864 97.9242L421.33 98.7446C421.267 98.8393 421.11 98.934 421.016 98.934L409.637 98.9024Z" fill="#00ACD7"/>
<path d="M404.89 101.806C404.764 101.806 404.733 101.743 404.796 101.648L405.456 100.796C405.519 100.701 405.676 100.638 405.802 100.638H420.136C420.261 100.638 420.324 100.733 420.293 100.828L420.041 101.585C420.01 101.711 419.884 101.774 419.758 101.774L404.89 101.806Z" fill="#00ACD7"/>
<path d="M412.497 104.709C412.371 104.709 412.34 104.614 412.403 104.519L412.843 103.73C412.906 103.636 413.031 103.541 413.157 103.541H419.444C419.57 103.541 419.633 103.636 419.633 103.762L419.57 104.519C419.57 104.645 419.444 104.74 419.35 104.74L412.497 104.709Z" fill="#00ACD7"/>
<path d="M445.126 98.3345C443.145 98.8394 441.794 99.2181 439.845 99.723C439.373 99.8492 439.342 99.8807 438.933 99.4074C438.462 98.871 438.116 98.5239 437.456 98.2083C435.476 97.2301 433.558 97.5141 431.766 98.6816C429.629 100.07 428.529 102.121 428.56 104.677C428.591 107.202 430.32 109.284 432.804 109.631C434.941 109.915 436.733 109.158 438.147 107.549C438.43 107.202 438.682 106.823 438.996 106.381C437.865 106.381 436.45 106.381 432.929 106.381C432.269 106.381 432.112 105.971 432.332 105.435C432.741 104.456 433.495 102.815 433.935 101.995C434.03 101.806 434.25 101.49 434.721 101.49C436.324 101.49 442.234 101.49 446.163 101.49C446.1 102.342 446.1 103.194 445.975 104.046C445.629 106.318 444.78 108.401 443.397 110.231C441.134 113.229 438.179 115.091 434.438 115.595C431.358 116.006 428.497 115.406 425.982 113.513C423.656 111.746 422.336 109.411 421.99 106.507C421.582 103.068 422.587 99.9754 424.662 97.2616C426.894 94.327 429.849 92.4652 433.464 91.8025C436.419 91.2661 439.248 91.6132 441.794 93.3487C443.46 94.4532 444.654 95.9679 445.44 97.7981C445.629 98.0821 445.503 98.2399 445.126 98.3345Z" fill="#00ACD7"/>
<path d="M455.531 115.785C452.67 115.721 450.061 114.901 447.861 113.008C446.006 111.398 444.843 109.347 444.466 106.917C443.9 103.352 444.874 100.196 447.012 97.3876C449.307 94.3583 452.073 92.7805 455.813 92.1179C459.02 91.5499 462.037 91.8654 464.772 93.7272C467.255 95.4312 468.796 97.7348 469.204 100.764C469.739 105.024 468.513 108.495 465.589 111.461C463.515 113.576 460.969 114.901 458.045 115.501C457.197 115.658 456.348 115.69 455.531 115.785ZM463.012 103.036C462.98 102.626 462.98 102.31 462.918 101.995C462.352 98.8708 459.491 97.1036 456.505 97.7979C453.582 98.4605 451.696 100.322 451.004 103.289C450.438 105.75 451.633 108.243 453.896 109.253C455.625 110.01 457.354 109.915 459.02 109.063C461.503 107.769 462.855 105.75 463.012 103.036Z" fill="#00ACD7"/>
</g>
<g filter="url(#filter4_dd_2101_718)">
<rect x="198" y="6" width="118" height="118" rx="59" fill="white"/>
<rect x="195" y="3" width="124" height="124" rx="62" stroke="#F2F2F2" stroke-width="6"/>
<g clip-path="url(#clip1_2101_718)">
<path d="M257.161 39.0005C254.81 39.0112 252.566 39.2086 250.591 39.5527C244.773 40.5649 243.716 42.6835 243.716 46.5904V51.7503H257.465V53.4703H243.716H238.557C234.561 53.4703 231.062 55.8353 229.968 60.3344C228.706 65.4914 228.65 68.7094 229.968 74.0941C230.945 78.1023 233.279 80.9582 237.275 80.9582H242.002V74.7727C242.002 70.3039 245.928 66.3622 250.591 66.3622H264.323C268.146 66.3622 271.198 63.2627 271.198 59.4823V46.5904C271.198 42.9213 268.054 40.1651 264.323 39.5527C261.962 39.1656 259.511 38.9897 257.161 39.0005ZM249.725 43.1505C251.146 43.1505 252.305 44.3112 252.305 45.7383C252.305 47.1604 251.146 48.3104 249.725 48.3104C248.3 48.3104 247.146 47.1604 247.146 45.7383C247.146 44.3112 248.3 43.1505 249.725 43.1505Z" fill="url(#paint0_linear_2101_718)"/>
<path d="M272.912 53.4702V59.4822C272.912 64.1432 268.899 68.0663 264.323 68.0663H250.591C246.829 68.0663 243.716 71.2366 243.716 74.9462V87.838C243.716 91.5071 246.956 93.6653 250.591 94.7179C254.943 95.9781 259.116 96.2058 264.323 94.7179C267.785 93.7311 271.198 91.745 271.198 87.838V82.6781H257.465V80.9582H271.198H278.072C282.068 80.9582 283.557 78.2136 284.946 74.0941C286.382 69.8531 286.321 65.7747 284.946 60.3343C283.959 56.4172 282.073 53.4702 278.072 53.4702H272.912ZM265.189 86.1181C266.614 86.1181 267.768 87.268 267.768 88.6901C267.768 90.1173 266.614 91.278 265.189 91.278C263.768 91.278 262.609 90.1173 262.609 88.6901C262.609 87.268 263.768 86.1181 265.189 86.1181Z" fill="url(#paint1_linear_2101_718)"/>
<path opacity="0.44382" d="M257.621 107C267.796 107 276.045 105.425 276.045 103.482C276.045 101.539 267.796 99.9639 257.621 99.9639C247.446 99.9639 239.197 101.539 239.197 103.482C239.197 105.425 247.446 107 257.621 107Z" fill="url(#paint2_radial_2101_718)"/>
</g>
</g>
<g filter="url(#filter5_dd_2101_718)">
<rect x="18" y="306" width="118" height="118" rx="59" fill="white"/>
<rect x="15" y="303" width="124" height="124" rx="62" stroke="#F2F2F2" stroke-width="6"/>
<g clip-path="url(#clip2_2101_718)">
<mask id="mask0_2101_718" style="mask-type:luminance" maskUnits="userSpaceOnUse" x="37" y="348" width="72" height="39">
<path d="M37.0405 367.5C37.0405 378.231 53.1405 386.931 73 386.931C92.8595 386.931 108.96 378.231 108.96 367.5C108.96 356.769 92.8595 348.069 73 348.069C53.1405 348.069 37.0405 356.769 37.0405 367.5Z" fill="white"/>
</mask>
<g mask="url(#mask0_2101_718)">
<path d="M37.0405 367.5C37.0405 378.231 53.1405 386.931 73 386.931C92.8595 386.931 108.96 378.231 108.96 367.5C108.96 356.769 92.8595 348.069 73 348.069C53.1405 348.069 37.0405 356.769 37.0405 367.5Z" fill="url(#paint3_radial_2101_718)"/>
</g>
<mask id="mask1_2101_718" style="mask-type:luminance" maskUnits="userSpaceOnUse" x="35" y="345" width="76" height="45">
<path d="M35.5422 345.856H110.458V389.144H35.5422V345.856Z" fill="white"/>
</mask>
<g mask="url(#mask1_2101_718)">
<path d="M73 385.488C92.0838 385.488 107.555 377.435 107.555 367.5C107.555 357.565 92.0838 349.511 73 349.511C53.9162 349.511 38.4452 357.565 38.4452 367.5C38.4452 377.435 53.9162 385.488 73 385.488Z" fill="#777BB3"/>
</g>
<mask id="mask2_2101_718" style="mask-type:luminance" maskUnits="userSpaceOnUse" x="35" y="345" width="76" height="45">
<path d="M35.5422 345.856H110.458V389.144H35.5422V345.856Z" fill="white"/>
</mask>
<g mask="url(#mask2_2101_718)">
<path d="M56.5776 369.73C58.1468 369.73 59.3183 369.433 60.0595 368.847C60.7928 368.267 61.2993 367.262 61.5647 365.86C61.8122 364.55 61.7179 363.636 61.2846 363.142C60.8414 362.638 59.8834 362.382 58.4371 362.382H55.9294L54.5392 369.73H56.5776ZM48.3756 378.782C48.2591 378.782 48.1486 378.728 48.0746 378.636C48.0005 378.544 47.9704 378.422 47.9926 378.305L51.677 358.832C51.7127 358.643 51.8733 358.507 52.0601 358.507H60.0009C62.4965 358.507 64.354 359.203 65.5216 360.577C66.6954 361.957 67.0579 363.886 66.5989 366.311C66.4121 367.299 66.0909 368.216 65.6441 369.038C65.1968 369.86 64.6057 370.621 63.8868 371.3C63.0263 372.127 62.0524 372.727 60.9948 373.08C59.9539 373.428 58.6171 373.605 57.0217 373.605H53.8063L52.888 378.457C52.8524 378.646 52.6919 378.782 52.5051 378.782H48.3756Z" fill="black"/>
<path d="M56.2511 362.783H58.4372C60.1827 362.783 60.7891 363.176 60.9951 363.411C61.3369 363.8 61.4014 364.621 61.1818 365.784C60.9349 367.087 60.4773 368.011 59.8216 368.529C59.1502 369.06 58.0587 369.329 56.5777 369.329H55.0125L56.2511 362.783ZM60.0009 358.107H52.06C51.6865 358.107 51.3654 358.379 51.2941 358.755L47.6097 378.228C47.5652 378.463 47.6253 378.706 47.7734 378.891C47.9217 379.076 48.1426 379.183 48.3756 379.183H52.5051C52.8787 379.183 53.1999 378.911 53.2711 378.534L54.128 374.005H57.0217C58.6582 374.005 60.0358 373.822 61.1159 373.461C62.2268 373.09 63.2488 372.461 64.1534 371.592C64.9015 370.885 65.5177 370.092 65.9847 369.233C66.4517 368.375 66.7873 367.417 66.982 366.387C67.4652 363.835 67.0726 361.791 65.8155 360.313C64.5705 358.849 62.6141 358.107 60.0009 358.107ZM54.0658 370.131H56.5777C58.2426 370.131 59.4828 369.809 60.2976 369.164C61.1126 368.52 61.6622 367.444 61.9478 365.937C62.2211 364.49 62.0966 363.469 61.5744 362.874C61.0516 362.279 60.006 361.981 58.4372 361.981H55.6078L54.0658 370.131ZM60.0009 358.908C62.3898 358.908 64.1325 359.552 65.2278 360.84C66.3231 362.128 66.6529 363.926 66.2159 366.235C66.036 367.185 65.7318 368.055 65.3035 368.842C64.8747 369.63 64.3148 370.351 63.6229 371.005C62.7983 371.797 61.8823 372.362 60.8743 372.699C59.8663 373.036 58.5825 373.204 57.0217 373.204H53.4846L52.5051 378.381H48.3756L52.06 358.908H60.0009Z" fill="white"/>
<path d="M76.0672 373.604C75.9507 373.604 75.8402 373.551 75.7662 373.459C75.692 373.366 75.6619 373.245 75.6842 373.127L77.314 364.511C77.469 363.692 77.4308 363.104 77.2064 362.855C77.0691 362.703 76.6565 362.449 75.4367 362.449H72.484L70.4349 373.28C70.3992 373.468 70.2386 373.604 70.0518 373.604H65.9549C65.8384 373.604 65.7279 373.551 65.6538 373.459C65.5797 373.366 65.5496 373.245 65.5719 373.127L69.2563 353.654C69.2919 353.466 69.4525 353.33 69.6393 353.33H73.7362C73.8528 353.33 73.9632 353.384 74.0373 353.476C74.1115 353.568 74.1415 353.69 74.1193 353.807L73.2302 358.507H76.4065C78.8263 358.507 80.4672 358.946 81.4229 359.847C82.397 360.767 82.701 362.237 82.3264 364.218L80.6122 373.28C80.5766 373.468 80.4161 373.604 80.2292 373.604H76.0672Z" fill="black"/>
<path d="M73.7363 352.929H69.6394C69.2657 352.929 68.9446 353.201 68.8733 353.578L65.1889 373.051C65.1444 373.286 65.2045 373.529 65.3528 373.714C65.5011 373.898 65.7219 374.005 65.955 374.005H70.0519C70.4255 374.005 70.7467 373.733 70.818 373.357L72.8057 362.849H75.4367C76.6545 362.849 76.9101 363.117 76.9203 363.128C76.9942 363.21 77.0914 363.588 76.931 364.435L75.3012 373.051C75.2567 373.286 75.3168 373.529 75.4651 373.714C75.6134 373.898 75.8342 374.005 76.0673 374.005H80.2292C80.6028 374.005 80.924 373.733 80.9953 373.357L82.7094 364.295C83.1117 362.168 82.7675 360.572 81.687 359.552C80.6558 358.579 78.9286 358.107 76.4066 358.107H73.7034L74.5024 353.884C74.5467 353.649 74.4868 353.406 74.3385 353.221C74.1902 353.036 73.9694 352.929 73.7363 352.929ZM73.7363 353.731L72.7568 358.908H76.4066C78.7031 358.908 80.2871 359.32 81.1589 360.142C82.0307 360.965 82.2919 362.299 81.9435 364.142L80.2292 373.204H76.0673L77.6971 364.588C77.8825 363.608 77.8144 362.939 77.4924 362.583C77.1702 362.226 76.4849 362.048 75.4367 362.048H72.1623L70.0519 373.204H65.955L69.6394 353.731H73.7363Z" fill="white"/>
<path d="M88.8089 369.73C90.3781 369.73 91.5496 369.433 92.2908 368.847C93.0241 368.267 93.5306 367.262 93.7961 365.86C94.0437 364.55 93.9494 363.636 93.5159 363.142C93.0727 362.638 92.1147 362.382 90.6684 362.382H88.1607L86.7705 369.73H88.8089ZM80.607 378.782C80.4906 378.782 80.38 378.728 80.306 378.636C80.2319 378.544 80.2017 378.422 80.224 378.305L83.9083 358.832C83.9441 358.643 84.1046 358.507 84.2915 358.507H92.2322C94.7279 358.507 96.5853 359.203 97.753 360.577C98.9268 361.957 99.2892 363.886 98.8303 366.311C98.6433 367.299 98.3222 368.216 97.8754 369.038C97.4281 369.86 96.837 370.621 96.1181 371.3C95.2577 372.127 94.2838 372.727 93.2261 373.08C92.1852 373.428 90.8484 373.605 89.253 373.605H86.0375L85.1196 378.457C85.0838 378.646 84.9233 378.782 84.7364 378.782H80.607Z" fill="black"/>
<path d="M88.4824 362.783H90.6685C92.4141 362.783 93.0204 363.176 93.2264 363.411C93.5684 363.8 93.6329 364.621 93.4131 365.784C93.1662 367.087 92.7085 368.011 92.0529 368.529C91.3815 369.06 90.29 369.329 88.809 369.329H87.244L88.4824 362.783ZM92.2322 358.107H84.2915C83.9179 358.107 83.5968 358.379 83.5255 358.755L79.8411 378.228C79.7967 378.463 79.8567 378.706 80.0049 378.891C80.1532 379.076 80.374 379.183 80.6071 379.183H84.7365C85.1101 379.183 85.4313 378.911 85.5026 378.534L86.3593 374.005H89.253C90.8895 374.005 92.2671 373.822 93.3473 373.461C94.4581 373.09 95.4804 372.461 96.385 371.592C97.1331 370.885 97.7491 370.092 98.216 369.233C98.683 368.375 99.0186 367.417 99.2133 366.387C99.6965 363.835 99.3039 361.791 98.0468 360.313C96.8018 358.849 94.8456 358.107 92.2322 358.107ZM86.2973 370.131H88.809C90.4739 370.131 91.7141 369.809 92.5289 369.164C93.344 368.52 93.8935 367.444 94.1791 365.937C94.4525 364.49 94.3281 363.469 93.8057 362.874C93.2829 362.279 92.2373 361.981 90.6685 361.981H87.8391L86.2973 370.131ZM92.2322 358.908C94.6211 358.908 96.3638 359.552 97.4592 360.84C98.5545 362.128 98.8842 363.926 98.4472 366.235C98.2674 367.185 97.9631 368.055 97.5349 368.842C97.106 369.63 96.5461 370.351 95.8542 371.005C95.0296 371.797 94.1136 372.362 93.1056 372.699C92.0976 373.036 90.8138 373.204 89.253 373.204H85.7159L84.7365 378.381H80.6071L84.2915 358.908H92.2322Z" fill="white"/>
</g>
</g>
</g>
<g filter="url(#filter6_dd_2101_718)">
<rect x="18" y="112" width="118" height="118" rx="59" fill="white"/>
<rect x="15" y="109" width="124" height="124" rx="62" stroke="#F2F2F2" stroke-width="6"/>
<g clip-path="url(#clip3_2101_718)">
<path fill-rule="evenodd" clip-rule="evenodd" d="M93.2594 181.262L58.4321 202L103.527 198.931L107 153.334L93.2594 181.262Z" fill="url(#paint4_linear_2101_718)"/>
<path fill-rule="evenodd" clip-rule="evenodd" d="M103.601 198.9L99.7248 172.074L89.1674 186.054L103.601 198.9Z" fill="url(#paint5_linear_2101_718)"/>
<path fill-rule="evenodd" clip-rule="evenodd" d="M103.653 198.9L75.2577 196.665L58.583 201.942L103.653 198.9Z" fill="url(#paint6_linear_2101_718)"/>
<path fill-rule="evenodd" clip-rule="evenodd" d="M58.623 201.947L65.7165 178.644L50.1071 181.991L58.623 201.947Z" fill="url(#paint7_linear_2101_718)"/>
<path fill-rule="evenodd" clip-rule="evenodd" d="M89.1646 186.131L82.6376 160.494L63.9586 178.051L89.1646 186.131Z" fill="url(#paint8_linear_2101_718)"/>
<path fill-rule="evenodd" clip-rule="evenodd" d="M105.519 160.855L87.8623 146.394L82.9454 162.334L105.519 160.855Z" fill="url(#paint9_linear_2101_718)"/>
<path fill-rule="evenodd" clip-rule="evenodd" d="M97.2618 141.238L86.8771 146.993L80.3254 141.161L97.2618 141.238Z" fill="url(#paint10_linear_2101_718)"/>
<path fill-rule="evenodd" clip-rule="evenodd" d="M46 189.808L50.3503 181.852L46.8313 172.374L46 189.808Z" fill="url(#paint11_linear_2101_718)"/>
<path fill-rule="evenodd" clip-rule="evenodd" d="M46.5973 172.074L50.1379 182.145L65.5226 178.684L83.0871 162.315L88.0439 146.526L80.2389 141L66.9693 145.98C62.7886 149.879 54.676 157.595 54.3835 157.74C54.0941 157.888 49.0265 167.493 46.5973 172.074Z" fill="white"/>
<path fill-rule="evenodd" clip-rule="evenodd" d="M59.0294 153.982C68.0903 144.973 79.7712 139.651 84.2539 144.186C88.7338 148.722 83.9829 159.743 74.9221 168.749C65.8612 177.755 54.325 183.371 49.8454 178.836C45.3627 174.303 49.9685 162.988 59.0294 153.982Z" fill="url(#paint12_linear_2101_718)"/>
<path fill-rule="evenodd" clip-rule="evenodd" d="M58.623 201.938L65.6612 178.561L89.0353 186.091C80.584 194.037 71.1845 200.756 58.623 201.938Z" fill="url(#paint13_linear_2101_718)"/>
<path fill-rule="evenodd" clip-rule="evenodd" d="M83.1178 162.269L89.1184 186.103C96.178 178.66 102.514 170.657 105.617 160.759L83.1178 162.269Z" fill="url(#paint14_linear_2101_718)"/>
<path fill-rule="evenodd" clip-rule="evenodd" d="M105.556 160.879C107.958 153.612 108.512 143.186 97.1877 141.25L87.8959 146.397L105.556 160.879Z" fill="url(#paint15_linear_2101_718)"/>
<path fill-rule="evenodd" clip-rule="evenodd" d="M46 189.703C46.3325 201.698 54.9623 201.876 58.6384 201.982L50.1471 182.096L46 189.703Z" fill="#9E1209"/>
<path fill-rule="evenodd" clip-rule="evenodd" d="M83.1514 162.306C88.5762 165.649 99.5093 172.364 99.7309 172.488C100.075 172.682 104.445 165.1 105.436 160.814L83.1514 162.306Z" fill="url(#paint16_radial_2101_718)"/>
<path fill-rule="evenodd" clip-rule="evenodd" d="M65.6519 178.561L75.0606 196.764C80.624 193.738 84.9805 190.052 88.9706 186.103L65.6519 178.561Z" fill="url(#paint17_radial_2101_718)"/>
<path fill-rule="evenodd" clip-rule="evenodd" d="M50.1102 182.121L48.7771 198.039C51.2925 201.485 54.753 201.784 58.3829 201.515C55.7567 194.961 50.5105 181.855 50.1102 182.121Z" fill="url(#paint18_linear_2101_718)"/>
<path fill-rule="evenodd" clip-rule="evenodd" d="M87.8407 146.437L106.532 149.067C105.534 144.828 102.471 142.093 97.2495 141.238L87.8407 146.437Z" fill="url(#paint19_linear_2101_718)"/>
</g>
</g>
<path d="M201.634 304.485L202.222 304.046C205.634 301.494 208.006 297.793 208.897 293.628C209.789 289.462 209.14 285.115 207.071 281.392C203.556 275.202 195.584 272.713 189.717 276.734C187.69 278.119 186.149 280.105 185.31 282.411C184.471 284.717 184.375 287.228 185.037 289.59C185.699 291.953 187.085 294.05 189.001 295.585C190.916 297.12 193.265 298.017 195.717 298.15C195.873 298.154 196.023 298.21 196.144 298.307C196.266 298.405 196.353 298.539 196.391 298.691C196.43 298.842 196.419 299.001 196.358 299.145C196.298 299.289 196.193 299.41 196.059 299.489L195.624 299.814C193.16 301.653 190.417 303.085 187.5 304.055L189.844 309.636C194.121 308.86 198.159 307.097 201.634 304.485Z" stroke="#1C1C1C" stroke-width="2.80085" stroke-miterlimit="10"/>
<path d="M227.184 282.237V277.893H232.108V282.237H227.184ZM227.184 304.5V284.952H232.108V304.5H227.184ZM250.856 304.5V295.269C250.856 294.823 250.831 294.255 250.783 293.568C250.735 292.868 250.584 292.168 250.331 291.468C250.077 290.768 249.661 290.183 249.082 289.712C248.515 289.242 247.706 289.006 246.656 289.006C246.234 289.006 245.781 289.073 245.299 289.205C244.816 289.338 244.364 289.598 243.941 289.984C243.519 290.358 243.169 290.913 242.891 291.649C242.626 292.385 242.493 293.362 242.493 294.581L239.67 293.242C239.67 291.697 239.983 290.249 240.611 288.898C241.238 287.546 242.18 286.454 243.434 285.622C244.702 284.789 246.294 284.373 248.213 284.373C249.745 284.373 250.994 284.632 251.96 285.151C252.925 285.67 253.673 286.328 254.204 287.124C254.747 287.92 255.133 288.753 255.362 289.622C255.592 290.478 255.73 291.263 255.779 291.975C255.827 292.687 255.851 293.206 255.851 293.531V304.5H250.856ZM237.498 304.5V284.952H241.878V291.432H242.493V304.5H237.498ZM272.277 304.5C270.925 304.753 269.598 304.862 268.295 304.826C267.003 304.802 265.845 304.578 264.819 304.156C263.806 303.722 263.034 303.028 262.503 302.075C262.02 301.182 261.767 300.277 261.742 299.36C261.718 298.43 261.706 297.381 261.706 296.21V279.522H266.629V295.921C266.629 296.681 266.635 297.369 266.648 297.984C266.672 298.587 266.798 299.07 267.028 299.432C267.462 300.12 268.156 300.494 269.109 300.554C270.062 300.615 271.118 300.566 272.277 300.409V304.5ZM258.376 288.753V284.952H272.277V288.753H258.376ZM284.623 305.043C282.62 305.043 280.852 304.615 279.32 303.758C277.799 302.889 276.605 301.701 275.736 300.192C274.879 298.672 274.451 296.934 274.451 294.979C274.451 292.844 274.873 290.985 275.718 289.405C276.563 287.824 277.727 286.599 279.211 285.73C280.695 284.849 282.403 284.409 284.334 284.409C286.385 284.409 288.129 284.892 289.564 285.857C291 286.822 292.062 288.18 292.75 289.929C293.438 291.679 293.679 293.737 293.474 296.102H288.605V294.292C288.605 292.301 288.285 290.871 287.646 290.002C287.018 289.121 285.987 288.681 284.551 288.681C282.873 288.681 281.637 289.193 280.84 290.219C280.056 291.233 279.664 292.735 279.664 294.726C279.664 296.548 280.056 297.96 280.84 298.961C281.637 299.951 282.801 300.446 284.334 300.446C285.299 300.446 286.125 300.234 286.813 299.812C287.501 299.39 288.026 298.78 288.388 297.984L293.311 299.396C292.575 301.182 291.411 302.569 289.818 303.559C288.237 304.548 286.506 305.043 284.623 305.043ZM278.143 296.102V292.445H291.103V296.102H278.143ZM305.923 313.731C304.813 313.731 303.757 313.55 302.756 313.188C301.754 312.838 300.855 312.343 300.059 311.704C299.274 311.076 298.635 310.34 298.14 309.496L302.701 307.287C303.015 307.867 303.462 308.307 304.041 308.609C304.632 308.91 305.272 309.061 305.959 309.061C306.695 309.061 307.389 308.935 308.041 308.681C308.693 308.44 309.211 308.072 309.598 307.577C309.996 307.094 310.183 306.491 310.159 305.767V300.084H310.774V284.952H315.082V305.839C315.082 306.322 315.058 306.775 315.009 307.197C314.973 307.631 314.901 308.06 314.792 308.482C314.478 309.677 313.893 310.66 313.037 311.432C312.192 312.205 311.154 312.778 309.923 313.152C308.693 313.538 307.359 313.731 305.923 313.731ZM305.489 305.043C303.691 305.043 302.116 304.591 300.765 303.685C299.413 302.78 298.357 301.55 297.597 299.993C296.849 298.436 296.475 296.681 296.475 294.726C296.475 292.735 296.855 290.967 297.615 289.423C298.388 287.866 299.468 286.641 300.855 285.748C302.243 284.855 303.872 284.409 305.742 284.409C307.6 284.409 309.163 284.861 310.43 285.766C311.697 286.671 312.656 287.902 313.308 289.459C313.96 291.015 314.285 292.771 314.285 294.726C314.285 296.681 313.954 298.436 313.29 299.993C312.638 301.55 311.661 302.78 310.358 303.685C309.055 304.591 307.432 305.043 305.489 305.043ZM306.285 300.663C307.383 300.663 308.258 300.415 308.91 299.921C309.573 299.426 310.05 298.732 310.34 297.839C310.629 296.946 310.774 295.909 310.774 294.726C310.774 293.543 310.629 292.506 310.34 291.613C310.05 290.72 309.585 290.026 308.946 289.531C308.318 289.037 307.492 288.789 306.466 288.789C305.368 288.789 304.463 289.061 303.751 289.604C303.051 290.135 302.532 290.853 302.195 291.758C301.857 292.651 301.688 293.64 301.688 294.726C301.688 295.824 301.851 296.826 302.176 297.731C302.502 298.624 303.003 299.335 303.679 299.866C304.355 300.397 305.223 300.663 306.285 300.663ZM320.151 304.5V284.952H324.495V289.73L324.024 289.115C324.277 288.439 324.615 287.824 325.038 287.269C325.46 286.714 325.979 286.255 326.594 285.893C327.065 285.604 327.578 285.38 328.133 285.223C328.688 285.055 329.261 284.952 329.852 284.916C330.444 284.867 331.035 284.88 331.626 284.952V289.549C331.083 289.38 330.45 289.326 329.726 289.386C329.014 289.435 328.368 289.598 327.789 289.875C327.21 290.141 326.721 290.497 326.323 290.943C325.925 291.377 325.623 291.896 325.418 292.5C325.213 293.091 325.11 293.761 325.11 294.509V304.5H320.151ZM335.431 282.237V277.893H340.354V282.237H335.431ZM335.431 304.5V284.952H340.354V304.5H335.431ZM354.577 305.043C352.61 305.043 350.885 304.603 349.401 303.722C347.916 302.841 346.758 301.628 345.925 300.084C345.105 298.527 344.695 296.741 344.695 294.726C344.695 292.687 345.117 290.895 345.962 289.35C346.806 287.794 347.971 286.581 349.455 285.712C350.939 284.843 352.647 284.409 354.577 284.409C356.544 284.409 358.27 284.849 359.754 285.73C361.25 286.611 362.415 287.83 363.247 289.386C364.08 290.931 364.496 292.711 364.496 294.726C364.496 296.753 364.074 298.545 363.229 300.102C362.396 301.646 361.232 302.859 359.736 303.74C358.252 304.609 356.532 305.043 354.577 305.043ZM354.577 300.446C356.158 300.446 357.334 299.915 358.107 298.853C358.891 297.779 359.283 296.403 359.283 294.726C359.283 292.988 358.885 291.601 358.089 290.563C357.304 289.525 356.134 289.006 354.577 289.006C353.503 289.006 352.622 289.248 351.935 289.73C351.247 290.213 350.734 290.883 350.396 291.739C350.07 292.596 349.907 293.592 349.907 294.726C349.907 296.476 350.3 297.869 351.084 298.907C351.88 299.933 353.045 300.446 354.577 300.446ZM381.798 304.5V295.269C381.798 294.823 381.774 294.255 381.726 293.568C381.677 292.868 381.527 292.168 381.273 291.468C381.02 290.768 380.603 290.183 380.024 289.712C379.457 289.242 378.649 289.006 377.599 289.006C377.176 289.006 376.724 289.073 376.241 289.205C375.759 289.338 375.306 289.598 374.884 289.984C374.461 290.358 374.112 290.913 373.834 291.649C373.569 292.385 373.436 293.362 373.436 294.581L370.612 293.242C370.612 291.697 370.926 290.249 371.553 288.898C372.181 287.546 373.122 286.454 374.377 285.622C375.644 284.789 377.237 284.373 379.155 284.373C380.688 284.373 381.937 284.632 382.902 285.151C383.867 285.67 384.616 286.328 385.147 287.124C385.69 287.92 386.076 288.753 386.305 289.622C386.534 290.478 386.673 291.263 386.721 291.975C386.769 292.687 386.794 293.206 386.794 293.531V304.5H381.798ZM368.44 304.5V284.952H372.82V291.432H373.436V304.5H368.44Z" fill="#1C1C1C"/>
<defs>
<filter id="filter0_dd_2101_718" x="156" y="438" width="154" height="154" filterUnits="userSpaceOnUse" color-interpolation-filters="sRGB">
<feFlood flood-opacity="0" result="BackgroundImageFix"/>
<feColorMatrix in="SourceAlpha" type="matrix" values="0 0 0 0 0 0 0 0 0 0 0 0 0 0 0 0 0 0 127 0" result="hardAlpha"/>
<feMorphology radius="2" operator="erode" in="SourceAlpha" result="effect1_dropShadow_2101_718"/>
<feOffset dy="4"/>
<feGaussianBlur stdDeviation="3"/>
<feComposite in2="hardAlpha" operator="out"/>
<feColorMatrix type="matrix" values="0 0 0 0 0 0 0 0 0 0 0 0 0 0 0 0 0 0 0.06 0"/>
<feBlend mode="normal" in2="BackgroundImageFix" result="effect1_dropShadow_2101_718"/>
<feColorMatrix in="SourceAlpha" type="matrix" values="0 0 0 0 0 0 0 0 0 0 0 0 0 0 0 0 0 0 127 0" result="hardAlpha"/>
<feMorphology radius="4" operator="erode" in="SourceAlpha" result="effect2_dropShadow_2101_718"/>
<feOffset dy="12"/>
<feGaussianBlur stdDeviation="8"/>
<feComposite in2="hardAlpha" operator="out"/>
<feColorMatrix type="matrix" values="0 0 0 0 0 0 0 0 0 0 0 0 0 0 0 0 0 0 0.1 0"/>
<feBlend mode="normal" in2="effect1_dropShadow_2101_718" result="effect2_dropShadow_2101_718"/>
<feBlend mode="normal" in="SourceGraphic" in2="effect2_dropShadow_2101_718" result="shape"/>
</filter>
<filter id="filter1_dd_2101_718" x="348" y="400" width="154" height="154" filterUnits="userSpaceOnUse" color-interpolation-filters="sRGB">
<feFlood flood-opacity="0" result="BackgroundImageFix"/>
<feColorMatrix in="SourceAlpha" type="matrix" values="0 0 0 0 0 0 0 0 0 0 0 0 0 0 0 0 0 0 127 0" result="hardAlpha"/>
<feMorphology radius="2" operator="erode" in="SourceAlpha" result="effect1_dropShadow_2101_718"/>
<feOffset dy="4"/>
<feGaussianBlur stdDeviation="3"/>
<feComposite in2="hardAlpha" operator="out"/>
<feColorMatrix type="matrix" values="0 0 0 0 0 0 0 0 0 0 0 0 0 0 0 0 0 0 0.06 0"/>
<feBlend mode="normal" in2="BackgroundImageFix" result="effect1_dropShadow_2101_718"/>
<feColorMatrix in="SourceAlpha" type="matrix" values="0 0 0 0 0 0 0 0 0 0 0 0 0 0 0 0 0 0 127 0" result="hardAlpha"/>
<feMorphology radius="4" operator="erode" in="SourceAlpha" result="effect2_dropShadow_2101_718"/>
<feOffset dy="12"/>
<feGaussianBlur stdDeviation="8"/>
<feComposite in2="hardAlpha" operator="out"/>
<feColorMatrix type="matrix" values="0 0 0 0 0 0 0 0 0 0 0 0 0 0 0 0 0 0 0.1 0"/>
<feBlend mode="normal" in2="effect1_dropShadow_2101_718" result="effect2_dropShadow_2101_718"/>
<feBlend mode="normal" in="SourceGraphic" in2="effect2_dropShadow_2101_718" result="shape"/>
</filter>
<filter id="filter2_dd_2101_718" x="432" y="213" width="154" height="154" filterUnits="userSpaceOnUse" color-interpolation-filters="sRGB">
<feFlood flood-opacity="0" result="BackgroundImageFix"/>
<feColorMatrix in="SourceAlpha" type="matrix" values="0 0 0 0 0 0 0 0 0 0 0 0 0 0 0 0 0 0 127 0" result="hardAlpha"/>
<feMorphology radius="2" operator="erode" in="SourceAlpha" result="effect1_dropShadow_2101_718"/>
<feOffset dy="4"/>
<feGaussianBlur stdDeviation="3"/>
<feComposite in2="hardAlpha" operator="out"/>
<feColorMatrix type="matrix" values="0 0 0 0 0 0 0 0 0 0 0 0 0 0 0 0 0 0 0.06 0"/>
<feBlend mode="normal" in2="BackgroundImageFix" result="effect1_dropShadow_2101_718"/>
<feColorMatrix in="SourceAlpha" type="matrix" values="0 0 0 0 0 0 0 0 0 0 0 0 0 0 0 0 0 0 127 0" result="hardAlpha"/>
<feMorphology radius="4" operator="erode" in="SourceAlpha" result="effect2_dropShadow_2101_718"/>
<feOffset dy="12"/>
<feGaussianBlur stdDeviation="8"/>
<feComposite in2="hardAlpha" operator="out"/>
<feColorMatrix type="matrix" values="0 0 0 0 0 0 0 0 0 0 0 0 0 0 0 0 0 0 0.1 0"/>
<feBlend mode="normal" in2="effect1_dropShadow_2101_718" result="effect2_dropShadow_2101_718"/>
<feBlend mode="normal" in="SourceGraphic" in2="effect2_dropShadow_2101_718" result="shape"/>
</filter>
<filter id="filter3_dd_2101_718" x="360" y="38" width="154" height="154" filterUnits="userSpaceOnUse" color-interpolation-filters="sRGB">
<feFlood flood-opacity="0" result="BackgroundImageFix"/>
<feColorMatrix in="SourceAlpha" type="matrix" values="0 0 0 0 0 0 0 0 0 0 0 0 0 0 0 0 0 0 127 0" result="hardAlpha"/>
<feMorphology radius="2" operator="erode" in="SourceAlpha" result="effect1_dropShadow_2101_718"/>
<feOffset dy="4"/>
<feGaussianBlur stdDeviation="3"/>
<feComposite in2="hardAlpha" operator="out"/>
<feColorMatrix type="matrix" values="0 0 0 0 0 0 0 0 0 0 0 0 0 0 0 0 0 0 0.06 0"/>
<feBlend mode="normal" in2="BackgroundImageFix" result="effect1_dropShadow_2101_718"/>
<feColorMatrix in="SourceAlpha" type="matrix" values="0 0 0 0 0 0 0 0 0 0 0 0 0 0 0 0 0 0 127 0" result="hardAlpha"/>
<feMorphology radius="4" operator="erode" in="SourceAlpha" result="effect2_dropShadow_2101_718"/>
<feOffset dy="12"/>
<feGaussianBlur stdDeviation="8"/>
<feComposite in2="hardAlpha" operator="out"/>
<feColorMatrix type="matrix" values="0 0 0 0 0 0 0 0 0 0 0 0 0 0 0 0 0 0 0.1 0"/>
<feBlend mode="normal" in2="effect1_dropShadow_2101_718" result="effect2_dropShadow_2101_718"/>
<feBlend mode="normal" in="SourceGraphic" in2="effect2_dropShadow_2101_718" result="shape"/>
</filter>
<filter id="filter4_dd_2101_718" x="180" y="0" width="154" height="154" filterUnits="userSpaceOnUse" color-interpolation-filters="sRGB">
<feFlood flood-opacity="0" result="BackgroundImageFix"/>
<feColorMatrix in="SourceAlpha" type="matrix" values="0 0 0 0 0 0 0 0 0 0 0 0 0 0 0 0 0 0 127 0" result="hardAlpha"/>
<feMorphology radius="2" operator="erode" in="SourceAlpha" result="effect1_dropShadow_2101_718"/>
<feOffset dy="4"/>
<feGaussianBlur stdDeviation="3"/>
<feComposite in2="hardAlpha" operator="out"/>
<feColorMatrix type="matrix" values="0 0 0 0 0 0 0 0 0 0 0 0 0 0 0 0 0 0 0.06 0"/>
<feBlend mode="normal" in2="BackgroundImageFix" result="effect1_dropShadow_2101_718"/>
<feColorMatrix in="SourceAlpha" type="matrix" values="0 0 0 0 0 0 0 0 0 0 0 0 0 0 0 0 0 0 127 0" result="hardAlpha"/>
<feMorphology radius="4" operator="erode" in="SourceAlpha" result="effect2_dropShadow_2101_718"/>
<feOffset dy="12"/>
<feGaussianBlur stdDeviation="8"/>
<feComposite in2="hardAlpha" operator="out"/>
<feColorMatrix type="matrix" values="0 0 0 0 0 0 0 0 0 0 0 0 0 0 0 0 0 0 0.1 0"/>
<feBlend mode="normal" in2="effect1_dropShadow_2101_718" result="effect2_dropShadow_2101_718"/>
<feBlend mode="normal" in="SourceGraphic" in2="effect2_dropShadow_2101_718" result="shape"/>
</filter>
<filter id="filter5_dd_2101_718" x="0" y="300" width="154" height="154" filterUnits="userSpaceOnUse" color-interpolation-filters="sRGB">
<feFlood flood-opacity="0" result="BackgroundImageFix"/>
<feColorMatrix in="SourceAlpha" type="matrix" values="0 0 0 0 0 0 0 0 0 0 0 0 0 0 0 0 0 0 127 0" result="hardAlpha"/>
<feMorphology radius="2" operator="erode" in="SourceAlpha" result="effect1_dropShadow_2101_718"/>
<feOffset dy="4"/>
<feGaussianBlur stdDeviation="3"/>
<feComposite in2="hardAlpha" operator="out"/>
<feColorMatrix type="matrix" values="0 0 0 0 0 0 0 0 0 0 0 0 0 0 0 0 0 0 0.06 0"/>
<feBlend mode="normal" in2="BackgroundImageFix" result="effect1_dropShadow_2101_718"/>
<feColorMatrix in="SourceAlpha" type="matrix" values="0 0 0 0 0 0 0 0 0 0 0 0 0 0 0 0 0 0 127 0" result="hardAlpha"/>
<feMorphology radius="4" operator="erode" in="SourceAlpha" result="effect2_dropShadow_2101_718"/>
<feOffset dy="12"/>
<feGaussianBlur stdDeviation="8"/>
<feComposite in2="hardAlpha" operator="out"/>
<feColorMatrix type="matrix" values="0 0 0 0 0 0 0 0 0 0 0 0 0 0 0 0 0 0 0.1 0"/>
<feBlend mode="normal" in2="effect1_dropShadow_2101_718" result="effect2_dropShadow_2101_718"/>
<feBlend mode="normal" in="SourceGraphic" in2="effect2_dropShadow_2101_718" result="shape"/>
</filter>
<filter id="filter6_dd_2101_718" x="0" y="106" width="154" height="154" filterUnits="userSpaceOnUse" color-interpolation-filters="sRGB">
<feFlood flood-opacity="0" result="BackgroundImageFix"/>
<feColorMatrix in="SourceAlpha" type="matrix" values="0 0 0 0 0 0 0 0 0 0 0 0 0 0 0 0 0 0 127 0" result="hardAlpha"/>
<feMorphology radius="2" operator="erode" in="SourceAlpha" result="effect1_dropShadow_2101_718"/>
<feOffset dy="4"/>
<feGaussianBlur stdDeviation="3"/>
<feComposite in2="hardAlpha" operator="out"/>
<feColorMatrix type="matrix" values="0 0 0 0 0 0 0 0 0 0 0 0 0 0 0 0 0 0 0.06 0"/>
<feBlend mode="normal" in2="BackgroundImageFix" result="effect1_dropShadow_2101_718"/>
<feColorMatrix in="SourceAlpha" type="matrix" values="0 0 0 0 0 0 0 0 0 0 0 0 0 0 0 0 0 0 127 0" result="hardAlpha"/>
<feMorphology radius="4" operator="erode" in="SourceAlpha" result="effect2_dropShadow_2101_718"/>
<feOffset dy="12"/>
<feGaussianBlur stdDeviation="8"/>
<feComposite in2="hardAlpha" operator="out"/>
<feColorMatrix type="matrix" values="0 0 0 0 0 0 0 0 0 0 0 0 0 0 0 0 0 0 0.1 0"/>
<feBlend mode="normal" in2="effect1_dropShadow_2101_718" result="effect2_dropShadow_2101_718"/>
<feBlend mode="normal" in="SourceGraphic" in2="effect2_dropShadow_2101_718" result="shape"/>
</filter>
<linearGradient id="paint0_linear_2101_718" x1="229" y1="39" x2="260.292" y2="66.078" gradientUnits="userSpaceOnUse">
<stop stop-color="#5A9FD4"/>
<stop offset="1" stop-color="#306998"/>
</linearGradient>
<linearGradient id="paint1_linear_2101_718" x1="264.858" y1="88.2563" x2="253.715" y2="72.3995" gradientUnits="userSpaceOnUse">
<stop stop-color="#FFD43B"/>
<stop offset="1" stop-color="#FFE873"/>
</linearGradient>
<radialGradient id="paint2_radial_2101_718" cx="0" cy="0" r="1" gradientUnits="userSpaceOnUse" gradientTransform="translate(257.621 103.482) rotate(-90) scale(3.51812 15.7032)">
<stop stop-color="#B8B8B8" stop-opacity="0.498039"/>
<stop offset="1" stop-color="#7F7F7F" stop-opacity="0"/>
</radialGradient>
<radialGradient id="paint3_radial_2101_718" cx="0" cy="0" r="1" gradientUnits="userSpaceOnUse" gradientTransform="translate(58.6308 354.9) scale(47.2199 48.5058)">
<stop stop-color="#AEB2D5"/>
<stop offset="0.3" stop-color="#AEB2D5"/>
<stop offset="0.75" stop-color="#484C89"/>
<stop offset="1" stop-color="#484C89"/>
</radialGradient>
<linearGradient id="paint4_linear_2101_718" x1="99.5936" y1="207.548" x2="86.6708" y2="184.795" gradientUnits="userSpaceOnUse">
<stop stop-color="#FB7655"/>
<stop offset="0.41" stop-color="#E42B1E"/>
<stop offset="0.99" stop-color="#990000"/>
<stop offset="1" stop-color="#990000"/>
</linearGradient>
<linearGradient id="paint5_linear_2101_718" x1="106.004" y1="188.409" x2="89.3908" y2="177.291" gradientUnits="userSpaceOnUse">
<stop stop-color="#871101"/>
<stop offset="0.99" stop-color="#911209"/>
<stop offset="1" stop-color="#911209"/>
</linearGradient>
<linearGradient id="paint6_linear_2101_718" x1="92.7346" y1="208.238" x2="76.1219" y2="197.121" gradientUnits="userSpaceOnUse">
<stop stop-color="#871101"/>
<stop offset="0.99" stop-color="#911209"/>
<stop offset="1" stop-color="#911209"/>
</linearGradient>
<linearGradient id="paint7_linear_2101_718" x1="57.9137" y1="180.33" x2="60.4987" y2="197.083" gradientUnits="userSpaceOnUse">
<stop stop-color="white"/>
<stop offset="0.23" stop-color="#E57252"/>
<stop offset="0.46" stop-color="#DE3B20"/>
<stop offset="0.99" stop-color="#A60003"/>
<stop offset="1" stop-color="#A60003"/>
</linearGradient>
<linearGradient id="paint8_linear_2101_718" x1="75.5973" y1="164.685" x2="76.5498" y2="181.784" gradientUnits="userSpaceOnUse">
<stop stop-color="white"/>
<stop offset="0.23" stop-color="#E4714E"/>
<stop offset="0.56" stop-color="#BE1A0D"/>
<stop offset="0.99" stop-color="#A80D00"/>
<stop offset="1" stop-color="#A80D00"/>
</linearGradient>
<linearGradient id="paint9_linear_2101_718" x1="91.2899" y1="148.879" x2="94.1408" y2="161.131" gradientUnits="userSpaceOnUse">
<stop stop-color="white"/>
<stop offset="0.18" stop-color="#E46342"/>
<stop offset="0.4" stop-color="#C82410"/>
<stop offset="0.99" stop-color="#A80D00"/>
<stop offset="1" stop-color="#A80D00"/>
</linearGradient>
<linearGradient id="paint10_linear_2101_718" x1="82.6303" y1="144.563" x2="94.8643" y2="138.463" gradientUnits="userSpaceOnUse">
<stop stop-color="white"/>
<stop offset="0.54" stop-color="#C81F11"/>
<stop offset="0.99" stop-color="#BF0905"/>
<stop offset="1" stop-color="#BF0905"/>
</linearGradient>
<linearGradient id="paint11_linear_2101_718" x1="47.2017" y1="176.058" x2="48.2131" y2="186.156" gradientUnits="userSpaceOnUse">
<stop stop-color="white"/>
<stop offset="0.31" stop-color="#DE4024"/>
<stop offset="0.99" stop-color="#BF190B"/>
<stop offset="1" stop-color="#BF190B"/>
</linearGradient>
<linearGradient id="paint12_linear_2101_718" x1="40.2871" y1="188.886" x2="87.7034" y2="140.264" gradientUnits="userSpaceOnUse">
<stop stop-color="#BD0012"/>
<stop offset="0.07" stop-color="white"/>
<stop offset="0.17" stop-color="white"/>
<stop offset="0.27" stop-color="#C82F1C"/>
<stop offset="0.33" stop-color="#820C01"/>
<stop offset="0.46" stop-color="#A31601"/>
<stop offset="0.72" stop-color="#B31301"/>
<stop offset="0.99" stop-color="#E82609"/>
<stop offset="1" stop-color="#E82609"/>
</linearGradient>
<linearGradient id="paint13_linear_2101_718" x1="76.503" y1="193.804" x2="62.2569" y2="190.298" gradientUnits="userSpaceOnUse">
<stop stop-color="#8C0C01"/>
<stop offset="0.54" stop-color="#990C00"/>
<stop offset="0.99" stop-color="#A80D0E"/>
<stop offset="1" stop-color="#A80D0E"/>
</linearGradient>
<linearGradient id="paint14_linear_2101_718" x1="100.964" y1="176.664" x2="88.2812" y2="165.328" gradientUnits="userSpaceOnUse">
<stop stop-color="#7E110B"/>
<stop offset="0.99" stop-color="#9E0C00"/>
<stop offset="1" stop-color="#9E0C00"/>
</linearGradient>
<linearGradient id="paint15_linear_2101_718" x1="105.613" y1="155.8" x2="99.2919" y2="149.061" gradientUnits="userSpaceOnUse">
<stop stop-color="#79130D"/>
<stop offset="0.99" stop-color="#9E120B"/>
<stop offset="1" stop-color="#9E120B"/>
</linearGradient>
<radialGradient id="paint16_radial_2101_718" cx="0" cy="0" r="1" gradientUnits="userSpaceOnUse" gradientTransform="translate(90.2826 165.51) scale(15.504 15.5472)">
<stop stop-color="#A80D00"/>
<stop offset="0.99" stop-color="#7E0E08"/>
<stop offset="1" stop-color="#7E0E08"/>
</radialGradient>
<radialGradient id="paint17_radial_2101_718" cx="0" cy="0" r="1" gradientUnits="userSpaceOnUse" gradientTransform="translate(68.8114 185.998) scale(20.6105 20.6679)">
<stop stop-color="#A30C00"/>
<stop offset="0.99" stop-color="#800E08"/>
<stop offset="1" stop-color="#800E08"/>
</radialGradient>
<linearGradient id="paint18_linear_2101_718" x1="54.2111" y1="201.925" x2="49.049" y2="184.46" gradientUnits="userSpaceOnUse">
<stop stop-color="#8B2114"/>
<stop offset="0.43" stop-color="#9E100A"/>
<stop offset="0.99" stop-color="#B3100C"/>
<stop offset="1" stop-color="#B3100C"/>
</linearGradient>
<linearGradient id="paint19_linear_2101_718" x1="93.6107" y1="144.025" x2="105.135" y2="149.098" gradientUnits="userSpaceOnUse">
<stop stop-color="#B31000"/>
<stop offset="0.44" stop-color="#910F08"/>
<stop offset="0.99" stop-color="#791C12"/>
<stop offset="1" stop-color="#791C12"/>
</linearGradient>
<clipPath id="clip0_2101_718">
<rect width="59" height="59" fill="white" transform="translate(395.5 439.523)"/>
</clipPath>
<clipPath id="clip1_2101_718">
<rect width="57" height="68" fill="white" transform="translate(229 39)"/>
</clipPath>
<clipPath id="clip2_2101_718">
<rect width="74" height="41" fill="white" transform="translate(36 347)"/>
</clipPath>
<clipPath id="clip3_2101_718">
<rect width="61" height="61" fill="white" transform="translate(46 141)"/>
</clipPath>
</defs>
</svg>
